<svg width="160" height="277" viewBox="0 0 160 277" fill="none" xmlns="http://www.w3.org/2000/svg">
<circle cx="-1.5" cy="139.5" r="62" stroke="#D1D1D1"/>
<circle cx="6" cy="139" r="86.5" stroke="#D1D1D1"/>
<path d="M130.5 138C130.5 198.98 75.7044 248.5 8 248.5C-59.7044 248.5 -114.5 198.98 -114.5 138C-114.5 77.0196 -59.7044 27.5 8 27.5C75.7044 27.5 130.5 77.0196 130.5 138Z" stroke="#D1D1D1"/>
<path d="M159.5 138.5C159.5 214.719 98.1596 276.5 22.5 276.5C-53.1596 276.5 -114.5 214.719 -114.5 138.5C-114.5 62.2813 -53.1596 0.5 22.5 0.5C98.1596 0.5 159.5 62.2813 159.5 138.5Z" stroke="#D1D1D1"/>
<path d="M32.8895 107.167C26.9074 86.8031 5.80397 79.2374 -4 78V201.5C-4 210.409 7.63182 211.107 13.4477 214.82C40.3671 224.365 56.8178 211.107 59.8089 192.547C62.349 176.784 38.8716 156.486 30.8955 144.819C26.4089 134.743 38.8716 127.531 32.8895 107.167Z" fill="url(#paint0_linear_44_158)"/>
<circle cx="37.5" cy="58.5" r="6.5" fill="url(#paint1_linear_44_158)"/>
<circle cx="127.5" cy="120.5" r="6.5" fill="url(#paint2_linear_44_158)"/>
<circle cx="59" cy="153" r="5" fill="url(#paint3_linear_44_158)"/>
<defs>
<linearGradient id="paint0_linear_44_158" x1="37.3565" y1="78" x2="-27.9973" y2="112.781" gradientUnits="userSpaceOnUse">
<stop stop-color="#F58303"/>
<stop offset="0.458333" stop-color="#FBA403"/>
<stop offset="1" stop-color="#FFB703"/>
</linearGradient>
<linearGradient id="paint1_linear_44_158" x1="27" y1="52" x2="41" y2="61.5" gradientUnits="userSpaceOnUse">
<stop stop-color="white" stop-opacity="0"/>
<stop offset="1" stop-color="#FFB300"/>
</linearGradient>
<linearGradient id="paint2_linear_44_158" x1="117" y1="114" x2="131" y2="123.5" gradientUnits="userSpaceOnUse">
<stop stop-color="white" stop-opacity="0"/>
<stop offset="1" stop-color="#50F761"/>
</linearGradient>
<linearGradient id="paint3_linear_44_158" x1="50.9231" y1="148" x2="61.6923" y2="155.308" gradientUnits="userSpaceOnUse">
<stop stop-color="white" stop-opacity="0"/>
<stop offset="1" stop-color="#7D86F8"/>
</linearGradient>
</defs>
</svg>
